<svg id="live-preview" width="300" height="300" xmlns="http://www.w3.org/2000/svg" class="border rounded" style="background-color: white;" viewBox="0.00286865234375 -0.00015978964802343398 593.88916015625 594.0718994140625">
        <defs>
            
            <pattern id="pattern1" patternUnits="userSpaceOnUse" width="60" height="60" x="0" y="0"><rect width="30" height="60" fill="#5e1515"/><rect x="30" width="30" height="60" fill="#5c4e13"/></pattern>
            
            <pattern id="pattern2" patternUnits="userSpaceOnUse" width="60" height="60" x="0" y="0"><rect width="60" height="60" fill="#5c4e13"/><line x1="0" y1="0" x2="60" y2="60" stroke="#5e1515" stroke-width="10"/><line x1="0" y1="60" x2="60" y2="0" stroke="#5e1515" stroke-width="10"/></pattern>
            
            <pattern id="pattern3" patternUnits="userSpaceOnUse" width="60" height="60" x="0" y="0"><rect width="60" height="60" fill="#5c4e13"/><line x1="0" y1="0" x2="60" y2="60" stroke="#5e1515" stroke-width="10"/><line x1="-30" y1="0" x2="30" y2="60" stroke="#5e1515" stroke-width="10"/><line x1="30" y1="0" x2="90" y2="60" stroke="#5e1515" stroke-width="10"/></pattern>
            
            <pattern id="pattern4" patternUnits="userSpaceOnUse" width="60" height="60" x="0" y="0"><rect width="60" height="60" fill="#5e1515"/><rect y="20" width="60" height="20" fill="#5c4e13"/></pattern>
            
            <pattern id="pattern5" patternUnits="userSpaceOnUse" width="60" height="60" x="0" y="0"><rect width="60" height="60" fill="#5c4e13"/><circle cx="30" cy="30" r="20" fill="#5e1515"/></pattern>
            
            <pattern id="pattern6" patternUnits="userSpaceOnUse" width="60" height="60" x="0" y="0"><rect width="60" height="60" fill="#5c4e13"/><rect x="0" y="0" width="30" height="30" fill="#5e1515"/><rect x="30" y="30" width="30" height="30" fill="#5e1515"/></pattern>
            
            <clipPath id="shield-clip">
                <path id="clip-path-shape" d="M593.89,296.77c.6,162.67-134.43,296.72-296.53,297.3C133.53,594.64-2.58,457.76.04,291.12,2.49,134.33,134.25.17,297.18,0c161.63-.17,296.73,135.33,296.71,296.77Z"/>
            </clipPath>
        </defs>
        <g id="shield-group">
            <g clip-path="url(#shield-clip)">
                <rect id="pattern-fill" width="100%" height="100%" fill="url(#pattern1)"/>
                <image id="shield-icon" href="/static/team_creation_assets/icons/boxing-glove-surprise-svgrepo-com.svg" width="400" height="400" x="96.94744873046875" y="97.03578991738323" visibility="visible" style="filter: invert(1);"/>
            </g>
            <path id="shield-outline" d="M593.89,296.77c.6,162.67-134.43,296.72-296.53,297.3C133.53,594.64-2.58,457.76.04,291.12,2.49,134.33,134.25.17,297.18,0c161.63-.17,296.73,135.33,296.71,296.77Z" fill="none" stroke="#333" stroke-width="1.5"/>
        </g>
    </svg>