<svg id="live-preview" width="300" height="300" xmlns="http://www.w3.org/2000/svg" class="border rounded" viewBox="0.00286865234375 -0.00015978967712726444 593.88916015625 594.0718994140625"><defs><mask id="shield-mask"><rect width="100%" height="100%" fill="black"/><path d="M593.89,296.77c.6,162.67-134.43,296.72-296.53,297.3C133.53,594.64-2.58,457.76.04,291.12,2.49,134.33,134.25.17,297.18,0c161.63-.17,296.73,135.33,296.71,296.77Z" fill="white"/></mask></defs>
        <defs>
            
            <pattern id="pattern1" patternUnits="userSpaceOnUse" width="60" height="60" x="0" y="0"><rect width="30" height="60" fill="#d32f2f"/><rect x="30" width="30" height="60" fill="#fdd835"/></pattern>
            
            <pattern id="pattern2" patternUnits="userSpaceOnUse" width="60" height="60" x="0" y="0"><rect width="60" height="60" fill="#fdd835"/><line x1="0" y1="0" x2="60" y2="60" stroke="#d32f2f" stroke-width="10"/><line x1="0" y1="60" x2="60" y2="0" stroke="#d32f2f" stroke-width="10"/></pattern>
            
            <pattern id="pattern3" patternUnits="userSpaceOnUse" width="60" height="60" x="0" y="0"><rect width="60" height="60" fill="#fdd835"/><line x1="0" y1="0" x2="60" y2="60" stroke="#d32f2f" stroke-width="10"/><line x1="-30" y1="0" x2="30" y2="60" stroke="#d32f2f" stroke-width="10"/><line x1="30" y1="0" x2="90" y2="60" stroke="#d32f2f" stroke-width="10"/></pattern>
            
            <pattern id="pattern4" patternUnits="userSpaceOnUse" width="60" height="60" x="0" y="0"><rect width="60" height="60" fill="#d32f2f"/><rect y="20" width="60" height="20" fill="#fdd835"/></pattern>
            
            <pattern id="pattern5" patternUnits="userSpaceOnUse" width="60" height="60" x="0" y="0"><rect width="60" height="60" fill="#fdd835"/><circle cx="30" cy="30" r="20" fill="#d32f2f"/></pattern>
            
            <pattern id="pattern6" patternUnits="userSpaceOnUse" width="60" height="60" x="0" y="0"><rect width="60" height="60" fill="#fdd835"/><rect x="0" y="0" width="30" height="30" fill="#d32f2f"/><rect x="30" y="30" width="30" height="30" fill="#d32f2f"/></pattern>
            
            <clipPath id="shield-clip">
                <path id="clip-path-shape" d="M593.89,296.77c.6,162.67-134.43,296.72-296.53,297.3C133.53,594.64-2.58,457.76.04,291.12,2.49,134.33,134.25.17,297.18,0c161.63-.17,296.73,135.33,296.71,296.77Z"/>
            </clipPath>
        </defs>
        
    <g mask="url(#shield-mask)"><g id="shield-group">
            <g clip-path="url(#shield-clip)">
                <rect id="pattern-fill" width="100%" height="100%" fill="url(#pattern6)"/>
                <image id="shield-icon" href="/static/user_created_icons/eeeeeeeeeeeeeeeeeeeeeeeeeeeeeee/—Pngtree—fun american football rugby clip_5803435.png" width="543" height="543" x="26.94744873070158" y="22.535789917354123" visibility="visible" style="filter: invert(1);"/>
            </g>
            <path id="shield-outline" d="M593.89,296.77c.6,162.67-134.43,296.72-296.53,297.3C133.53,594.64-2.58,457.76.04,291.12,2.49,134.33,134.25.17,297.18,0c161.63-.17,296.73,135.33,296.71,296.77Z" fill="none" stroke="#333" stroke-width="1.5"/>
        </g></g></svg>