<svg id="live-preview" width="300" height="300" xmlns="http://www.w3.org/2000/svg" class="border rounded" viewBox="0 0 598.2099609375 598.4200439453125"><defs><mask id="shield-mask"><rect width="100%" height="100%" fill="black"/><path d="M0,296.88C99.09,198.49,199.21,99.07,298.99,0c99.6,98.99,199.75,198.52,299.22,297.38-100.07,100.76-199.33,200.72-298.96,301.04C199.38,497.79,100.13,397.78,0,296.88Z" fill="white"/></mask></defs>
        <defs>
            
            <pattern id="pattern1" patternUnits="userSpaceOnUse" width="60" height="60" x="0" y="0"><rect width="30" height="60" fill="#d32f2f"/><rect x="30" width="30" height="60" fill="#fdd835"/></pattern>
            
            <pattern id="pattern2" patternUnits="userSpaceOnUse" width="60" height="60" x="0" y="0" patternTransform="translate(0, 55.5) scale(1)"><rect width="60" height="60" fill="#fdd835"/><line x1="0" y1="0" x2="60" y2="60" stroke="#d32f2f" stroke-width="10"/><line x1="0" y1="60" x2="60" y2="0" stroke="#d32f2f" stroke-width="10"/></pattern>
            
            <pattern id="pattern3" patternUnits="userSpaceOnUse" width="60" height="60" x="0" y="0"><rect width="60" height="60" fill="#fdd835"/><line x1="0" y1="0" x2="60" y2="60" stroke="#d32f2f" stroke-width="10"/><line x1="-30" y1="0" x2="30" y2="60" stroke="#d32f2f" stroke-width="10"/><line x1="30" y1="0" x2="90" y2="60" stroke="#d32f2f" stroke-width="10"/></pattern>
            
            <pattern id="pattern4" patternUnits="userSpaceOnUse" width="60" height="60" x="0" y="0"><rect width="60" height="60" fill="#d32f2f"/><rect y="20" width="60" height="20" fill="#fdd835"/></pattern>
            
            <pattern id="pattern5" patternUnits="userSpaceOnUse" width="60" height="60" x="0" y="0"><rect width="60" height="60" fill="#fdd835"/><circle cx="30" cy="30" r="20" fill="#d32f2f"/></pattern>
            
            <pattern id="pattern6" patternUnits="userSpaceOnUse" width="60" height="60" x="0" y="0"><rect width="60" height="60" fill="#fdd835"/><rect x="0" y="0" width="30" height="30" fill="#d32f2f"/><rect x="30" y="30" width="30" height="30" fill="#d32f2f"/></pattern>
            
            <clipPath id="shield-clip">
                <path id="clip-path-shape" d="M0,296.88C99.09,198.49,199.21,99.07,298.99,0c99.6,98.99,199.75,198.52,299.22,297.38-100.07,100.76-199.33,200.72-298.96,301.04C199.38,497.79,100.13,397.78,0,296.88Z"/>
            </clipPath>
        </defs>
        
    <g mask="url(#shield-mask)"><g id="shield-group">
            <g clip-path="url(#shield-clip)">
                <rect id="pattern-fill" width="100%" height="100%" fill="url(#pattern2)"/>
                <image id="shield-icon" width="235" height="235" x="181.60498046875" y="181.71002197265625" visibility="hidden" href="/static/user_created_icons/ddddddddddddddddddddddd/alligator-clip-svgrepo-com.svg"/>
            </g>
            <path id="shield-outline" d="M0,296.88C99.09,198.49,199.21,99.07,298.99,0c99.6,98.99,199.75,198.52,299.22,297.38-100.07,100.76-199.33,200.72-298.96,301.04C199.38,497.79,100.13,397.78,0,296.88Z" fill="none" stroke="#333" stroke-width="1.5"/>
        </g><svg xmlns="http://www.w3.org/2000/svg" width="400" height="400" viewBox="0 0 512 512" id="inline-shield-icon" x="124.60498046875" y="105.21002197265625" preserveAspectRatio="xMidYMid meet"><path fill="#000000" d="M493.533 193.153l-342.76-178.4-16.106 16.107c15.92 23.5 10.473 59.73-15.28 85.483-25.753 25.753-62.812 32.066-86.31 16.106l-15.28 15.28L195.785 490.9l152.383-89.612-108.608-8.672 54.51-54.51-91.266-7.022 47.49-47.49-82.178-6.196 39.644-39.645-70.617-5.37 35.514-35.513-61.532-4.543c42.474-7.71 79.37-44.36 87.136-87.135l4.957 61.12 35.103-35.102 5.782 70.203 39.23-39.23 6.607 81.766 47.078-47.08 7.02 91.264 54.51-54.51 8.258 106.545 86.723-147.017z"/></svg></g></svg>