<svg id="live-preview" width="300" height="300" xmlns="http://www.w3.org/2000/svg" class="border rounded" viewBox="0 0 490.0005187988281 598.17822265625"><defs><mask id="shield-mask"><rect width="100%" height="100%" fill="black"/><path d="M489.61,0c.08,1.5.21,2.96.21,4.42.08,58.17.22,116.34.17,174.5-.03,37.49-.34,74.98-.56,112.48-.18,30.66-.13,61.32-.68,91.98-.47,26.19-8.38,50.41-21.65,72.85-17.25,29.16-41.45,51.69-68.78,71.16-26.27,18.71-54.35,34.2-84.17,46.34-20.41,8.31-41.29,15.45-61.95,23.16-4.89,1.82-9.62,1.59-14.58.07-36.32-11.17-71.27-25.59-104.7-43.71-19.72-10.69-38.43-22.91-56.04-36.76-25.55-20.09-46.96-43.8-61.25-73.26-10.46-21.58-14.93-44.56-14.95-68.57C.54,251.5.24,128.33,0,5.17c0-1.65,0-3.3,0-5.17h489.61Z" fill="white"/></mask></defs>
        <defs>
            
            <pattern id="pattern1" patternUnits="userSpaceOnUse" width="60" height="60" x="0" y="0">
                    <rect width="30" height="60" fill="#e081fd"/>
                    <rect x="30" width="30" height="60" fill="#cf87d3"/>
                </pattern>
            
            <pattern id="pattern2" patternUnits="userSpaceOnUse" width="60" height="60" x="0" y="0">
                    <rect width="60" height="60" fill="#cf87d3"/>
                    <line x1="0" y1="0" x2="60" y2="60" stroke="#e081fd" stroke-width="10"/>
                    <line x1="0" y1="60" x2="60" y2="0" stroke="#e081fd" stroke-width="10"/>
                </pattern>
            
            <pattern id="pattern3" patternUnits="userSpaceOnUse" width="60" height="60" x="0" y="0">
                    <rect width="60" height="60" fill="#cf87d3"/>
                    <line x1="0" y1="0" x2="60" y2="60" stroke="#e081fd" stroke-width="10"/>
                    <line x1="-30" y1="0" x2="30" y2="60" stroke="#e081fd" stroke-width="10"/>
                    <line x1="30" y1="0" x2="90" y2="60" stroke="#e081fd" stroke-width="10"/>
                </pattern>
            
            <pattern id="pattern4" patternUnits="userSpaceOnUse" width="60" height="60" x="0" y="0">
                    <rect width="60" height="60" fill="#e081fd"/>
                    <rect y="20" width="60" height="20" fill="#cf87d3"/>
                </pattern>
            
            <pattern id="pattern5" patternUnits="userSpaceOnUse" width="60" height="60" x="0" y="0">
                    <rect width="60" height="60" fill="#cf87d3"/>
                    <circle cx="30" cy="30" r="20" fill="#e081fd"/>
                </pattern>
            
            <pattern id="pattern6" patternUnits="userSpaceOnUse" width="60" height="60" x="0" y="0" patternTransform="translate(3, 96) scale(1.0333333333333334)">
                    <rect width="60" height="60" fill="#cf87d3"/>
                    <rect x="0" y="0" width="30" height="30" fill="#e081fd"/>
                    <rect x="30" y="30" width="30" height="30" fill="#e081fd"/>
                </pattern>
            
            <clipPath id="shield-clip">
                <path id="clip-path-shape" d="M489.61,0c.08,1.5.21,2.96.21,4.42.08,58.17.22,116.34.17,174.5-.03,37.49-.34,74.98-.56,112.48-.18,30.66-.13,61.32-.68,91.98-.47,26.19-8.38,50.41-21.65,72.85-17.25,29.16-41.45,51.69-68.78,71.16-26.27,18.71-54.35,34.2-84.17,46.34-20.41,8.31-41.29,15.45-61.95,23.16-4.89,1.82-9.62,1.59-14.58.07-36.32-11.17-71.27-25.59-104.7-43.71-19.72-10.69-38.43-22.91-56.04-36.76-25.55-20.09-46.96-43.8-61.25-73.26-10.46-21.58-14.93-44.56-14.95-68.57C.54,251.5.24,128.33,0,5.17c0-1.65,0-3.3,0-5.17h489.61Z"/>
            </clipPath>
        </defs>
        
    <g mask="url(#shield-mask)"><g id="shield-group">
            <g clip-path="url(#shield-clip)">
                <rect id="pattern-fill" width="100%" height="100%" fill="url(#pattern6)"/>
                <image id="shield-icon" width="60" height="60" x="120" y="120" visibility="hidden" href="/static/user_created_icons/www2/assassin-pocket-svgrepo-com.svg"/>
            </g>
            <path id="shield-outline" d="M489.61,0c.08,1.5.21,2.96.21,4.42.08,58.17.22,116.34.17,174.5-.03,37.49-.34,74.98-.56,112.48-.18,30.66-.13,61.32-.68,91.98-.47,26.19-8.38,50.41-21.65,72.85-17.25,29.16-41.45,51.69-68.78,71.16-26.27,18.71-54.35,34.2-84.17,46.34-20.41,8.31-41.29,15.45-61.95,23.16-4.89,1.82-9.62,1.59-14.58.07-36.32-11.17-71.27-25.59-104.7-43.71-19.72-10.69-38.43-22.91-56.04-36.76-25.55-20.09-46.96-43.8-61.25-73.26-10.46-21.58-14.93-44.56-14.95-68.57C.54,251.5.24,128.33,0,5.17c0-1.65,0-3.3,0-5.17h489.61Z" fill="none" stroke="#333" stroke-width="1.5"/>
        </g><svg xmlns="http://www.w3.org/2000/svg" width="400" height="400" viewBox="0 0 512 512" id="inline-shield-icon" x="45.00025939941406" y="99.089111328125" preserveAspectRatio="xMidYMid meet"><path fill="#000000" d="M233.56 16.225l-15.535 54.302-79.183-12.79-2.98 18.45L212.85 88.62l-14.92 52.163 17.968 5.14 11.028-38.546c92.558 14.84 177.404 26.687 273.004 16.824-78.98-39.333-166.495-51.603-258.832-66.368l10.43-36.467-17.97-5.14zm-68.695 120.443l-13.482 12.953 69.644 72.493-59.63 34.428 9.347 16.19 44.098-25.46c83.234 86.485 160.743 164.186 267.683 231.242-48.682-97.16-128.987-177.16-212.025-263.375l40.176-23.198-9.346-16.19-63.625 36.734-72.84-75.816zm-87.11 13.424l-17.82 5.646 20.942 66.094-53.99 13.613 4.57 18.125 38.824-9.79c25.36 79.632 50.276 151.825 99.097 222.02 2.31-80.818-23.148-155.34-48.488-234.78l37.794-9.528-4.57-18.125-55.08 13.887-21.28-67.162z"/></svg></g></svg>