<svg id="live-preview" width="300" height="300" xmlns="http://www.w3.org/2000/svg" class="border rounded" viewBox="-0.0000133514404296875 0 512.8703002929688 596.8800659179688"><defs><mask id="shield-mask"><rect width="100%" height="100%" fill="black"/><path d="M255.06,596.88c-3.44-6.45-7.67-13.4-15.63-17.44-10.71-5.44-22.08-8.59-33.82-9.71-22.86-2.18-45.79-3.61-68.69-5.28-24.92-1.82-49.79-4-73.82-11.45-17.23-5.34-32.91-13.45-44.82-27.46C4.67,509.53-.01,490.46,0,469.94.1,315.27.23,160.6.35,5.93c0-1.82,0-3.63,0-5.93h512.2c0,1.81,0,3.75,0,5.69.04,119.34.06,238.68.12,358.02.02,35.5.11,71,.2,106.5.04,17.71-3.53,34.55-13.68,49.26-11.71,16.97-28.57,26.9-47.95,33.08-29.98,9.56-61.08,10.7-92.08,13.03-22.53,1.69-45.02,4.17-67.42,7.15-6.71.89-13.77,3.57-19.34,7.37-6.47,4.41-11.49,10.96-17.34,16.78Z" fill="white"/></mask></defs>
        <defs>
            
            <pattern id="pattern1" patternUnits="userSpaceOnUse" width="60" height="60" x="0" y="0"><rect width="30" height="60" fill="#d32f2f"/><rect x="30" width="30" height="60" fill="#fdd835"/></pattern>
            
            <pattern id="pattern2" patternUnits="userSpaceOnUse" width="60" height="60" x="0" y="0"><rect width="60" height="60" fill="#fdd835"/><line x1="0" y1="0" x2="60" y2="60" stroke="#d32f2f" stroke-width="10"/><line x1="0" y1="60" x2="60" y2="0" stroke="#d32f2f" stroke-width="10"/></pattern>
            
            <pattern id="pattern3" patternUnits="userSpaceOnUse" width="60" height="60" x="0" y="0"><rect width="60" height="60" fill="#fdd835"/><line x1="0" y1="0" x2="60" y2="60" stroke="#d32f2f" stroke-width="10"/><line x1="-30" y1="0" x2="30" y2="60" stroke="#d32f2f" stroke-width="10"/><line x1="30" y1="0" x2="90" y2="60" stroke="#d32f2f" stroke-width="10"/></pattern>
            
            <pattern id="pattern4" patternUnits="userSpaceOnUse" width="60" height="60" x="0" y="0"><rect width="60" height="60" fill="#d32f2f"/><rect y="20" width="60" height="20" fill="#fdd835"/></pattern>
            
            <pattern id="pattern5" patternUnits="userSpaceOnUse" width="60" height="60" x="0" y="0"><rect width="60" height="60" fill="#fdd835"/><circle cx="30" cy="30" r="20" fill="#d32f2f"/></pattern>
            
            <pattern id="pattern6" patternUnits="userSpaceOnUse" width="60" height="60" x="0" y="0"><rect width="60" height="60" fill="#fdd835"/><rect x="0" y="0" width="30" height="30" fill="#d32f2f"/><rect x="30" y="30" width="30" height="30" fill="#d32f2f"/></pattern>
            
            <clipPath id="shield-clip">
                <path id="clip-path-shape" d="M255.06,596.88c-3.44-6.45-7.67-13.4-15.63-17.44-10.71-5.44-22.08-8.59-33.82-9.71-22.86-2.18-45.79-3.61-68.69-5.28-24.92-1.82-49.79-4-73.82-11.45-17.23-5.34-32.91-13.45-44.82-27.46C4.67,509.53-.01,490.46,0,469.94.1,315.27.23,160.6.35,5.93c0-1.82,0-3.63,0-5.93h512.2c0,1.81,0,3.75,0,5.69.04,119.34.06,238.68.12,358.02.02,35.5.11,71,.2,106.5.04,17.71-3.53,34.55-13.68,49.26-11.71,16.97-28.57,26.9-47.95,33.08-29.98,9.56-61.08,10.7-92.08,13.03-22.53,1.69-45.02,4.17-67.42,7.15-6.71.89-13.77,3.57-19.34,7.37-6.47,4.41-11.49,10.96-17.34,16.78Z"/>
            </clipPath>
        </defs>
        
    <g mask="url(#shield-mask)"><g id="shield-group">
            <g clip-path="url(#shield-clip)">
                <rect id="pattern-fill" width="100%" height="100%" fill="url(#pattern5)"/>
                <image id="shield-icon" width="60" height="60" x="120" y="120" visibility="hidden" href="/static/user_created_icons/reererer/anatomy-svgrepo-com.svg"/>
            </g>
            <path id="shield-outline" d="M255.06,596.88c-3.44-6.45-7.67-13.4-15.63-17.44-10.71-5.44-22.08-8.59-33.82-9.71-22.86-2.18-45.79-3.61-68.69-5.28-24.92-1.82-49.79-4-73.82-11.45-17.23-5.34-32.91-13.45-44.82-27.46C4.67,509.53-.01,490.46,0,469.94.1,315.27.23,160.6.35,5.93c0-1.82,0-3.63,0-5.93h512.2c0,1.81,0,3.75,0,5.69.04,119.34.06,238.68.12,358.02.02,35.5.11,71,.2,106.5.04,17.71-3.53,34.55-13.68,49.26-11.71,16.97-28.57,26.9-47.95,33.08-29.98,9.56-61.08,10.7-92.08,13.03-22.53,1.69-45.02,4.17-67.42,7.15-6.71.89-13.77,3.57-19.34,7.37-6.47,4.41-11.49,10.96-17.34,16.78Z" fill="none" stroke="#333" stroke-width="1.5"/>
        </g><svg xmlns="http://www.w3.org/2000/svg" width="400" height="400" viewBox="0 0 512 512" id="inline-shield-icon" x="56.435136795042126" y="98.44003295898438" preserveAspectRatio="xMidYMid meet"><path fill="#000000" d="M264.656 21.313c-1.14.03-2.302.125-3.437.125-22.398 0-41.926 16.03-51.814 39.624h-32.53V79.75h27.093c-.933 5.287-1.44 10.788-1.44 16.438 0 20.942 7.004 39.835 17.845 53.437-67.073 10.402-81.57 103.76-65.625 188.563h23.03l-1-103.688 18.69-.188 1.25 127.344 8.436 128.188h46.03V316.97h18.69v172.874h43.468L324.53 339.28l1.033-104.967 18.687.187-1 103.688h23.97c9.113-43.9 7.847-88.28-3.5-123h19.186V196.5h-26.75c-12.045-24.34-30.405-41.378-54.97-46 11.33-13.665 18.69-32.84 18.69-54.313 0-38.775-23.07-70.913-52.595-74.75-.49-.074-.994-.11-1.5-.125-.377-.01-.743-.01-1.124 0zM73.812 22c-.322-.002-.636.003-.968.03-28.452 2.43-48.47 32.712-48.47 62.5 0 13.11 11.506 26.28 22.782 21.626 4.204-1.736 8.817-3.14 13.688-4.22 17.36 20.413 34.732 21.21 52.093.5 3.84.998 7.457 2.255 10.72 3.72C134.8 111.16 154.03 97.66 154.03 84.53c0-30.183-19.733-61.27-48.5-62.5-12.25-.522-13.16 16.207-15.155 31.564C88.855 36.41 83.798 22.054 73.812 22zM262.22 40.313c17.675 0 31.81 14.133 31.81 31.812 0 17.677-14.135 31.813-31.81 31.813-15.05 0-27.528-10.236-30.908-24.188h26.594V61.062h-25.562c4.46-12.155 16.1-20.75 29.875-20.75zm169.686 84.437c-4.99 6.646-10.375 13.93-13.75 22.97-.67 1.79-1.223 3.665-1.687 5.593l-.19-.157c-7.495-6.145-15.824-9.786-23.53-13.094l-7.375 17.157c7.48 3.21 14.112 6.346 19.063 10.405.747.613 1.44 1.254 2.125 1.906-.235.36-.472.724-.688 1.095-14.85 25.547 15.84 98.803 45.813 97.906 28.987-.857 54.867-73.634 39.75-97.905-.625-1.002-1.33-1.957-2.094-2.875.39-.75.78-1.492 1.125-2.25 4.004-8.778 5.358-17.74 6.53-25.97l-18.5-2.624c-1.1 7.73-2.36 14.62-4.813 20.25-3.622-1.42-7.537-2.525-11.593-3.28-14.478-.347-19.407 8.584-25.156 22.53 1.648-9.4 1.03-16.346-1.47-21.594.067-.186.12-.375.188-.562 2.202-5.9 6.348-11.836 11.188-18.28l-14.938-11.22zM76.594 136.28v18.657h18.72V136.28h-18.72zm217.03 36.44c14.905 0 27.27 10.03 30.782 23.78H295.5v18.688h28.094c-4.342 12.358-16.043 21.125-29.97 21.125-17.676 0-31.812-14.105-31.812-31.782 0-17.675 14.137-31.81 31.813-31.81zm-217.03.936v17.78h18.72v-17.78h-18.72zm0 36.47V228h18.72v-17.875h-18.72z"/></svg></g></svg>