<?xml version="1.0" encoding="UTF-8"?><svg id="a" xmlns="http://www.w3.org/2000/svg" viewBox="0 0 373.49 599.62"><path d="M372.77,599.62c-3.01-1.93-5.3-2.74-6.62-4.35-21.61-26.38-42.83-53.08-64.7-79.24-14.07-16.84-29.3-32.72-43.55-49.42-13.71-16.06-26.55-32.86-40.3-48.89-9.95-11.6-20.76-22.47-31.79-34.32-9.5,10.71-19.31,21.27-28.55,32.31-16.18,19.35-32.02,38.98-47.97,58.52-12.07,14.79-23.91,29.78-36.17,44.42-10.47,12.49-21.6,24.42-32.07,36.9-10.67,12.72-20.94,25.78-31.3,38.76-3.03,3.8-2.9,3.9-8.71,3.16C-.02,399.29-.92,201.07,1.78,1.46,125.08.97,248.06.49,371.91,0c0,3.28,0,5.19,0,7.1.09,25.16.1,50.32.3,75.48.39,48.47,1.17,96.95,1.28,145.42.09,38.31-.69,76.63-.89,114.95-.32,61.32-.56,122.63-.64,183.95-.03,21.82.52,43.63.8,65.45.02,1.81,0,3.61,0,7.28Z" style="fill:#1c2127;"/></svg>