<?xml version="1.0" encoding="UTF-8"?><svg id="a" xmlns="http://www.w3.org/2000/svg" viewBox="0 0 512.87 596.88"><path d="M255.06,596.88c-3.44-6.45-7.67-13.4-15.63-17.44-10.71-5.44-22.08-8.59-33.82-9.71-22.86-2.18-45.79-3.61-68.69-5.28-24.92-1.82-49.79-4-73.82-11.45-17.23-5.34-32.91-13.45-44.82-27.46C4.67,509.53-.01,490.46,0,469.94.1,315.27.23,160.6.35,5.93c0-1.82,0-3.63,0-5.93h512.2c0,1.81,0,3.75,0,5.69.04,119.34.06,238.68.12,358.02.02,35.5.11,71,.2,106.5.04,17.71-3.53,34.55-13.68,49.26-11.71,16.97-28.57,26.9-47.95,33.08-29.98,9.56-61.08,10.7-92.08,13.03-22.53,1.69-45.02,4.17-67.42,7.15-6.71.89-13.77,3.57-19.34,7.37-6.47,4.41-11.49,10.96-17.34,16.78Z" style="fill:#1c2127;"/></svg>