<?xml version="1.0" encoding="UTF-8"?><svg id="a" xmlns="http://www.w3.org/2000/svg" viewBox="0 0 490.01 598.18"><path d="M489.61,0c.08,1.5.21,2.96.21,4.42.08,58.17.22,116.34.17,174.5-.03,37.49-.34,74.98-.56,112.48-.18,30.66-.13,61.32-.68,91.98-.47,26.19-8.38,50.41-21.65,72.85-17.25,29.16-41.45,51.69-68.78,71.16-26.27,18.71-54.35,34.2-84.17,46.34-20.41,8.31-41.29,15.45-61.95,23.16-4.89,1.82-9.62,1.59-14.58.07-36.32-11.17-71.27-25.59-104.7-43.71-19.72-10.69-38.43-22.91-56.04-36.76-25.55-20.09-46.96-43.8-61.25-73.26-10.46-21.58-14.93-44.56-14.95-68.57C.54,251.5.24,128.33,0,5.17c0-1.65,0-3.3,0-5.17h489.61Z" style="fill:#1c2127;"/></svg>