<?xml version="1.0" encoding="UTF-8"?><svg id="a" xmlns="http://www.w3.org/2000/svg" viewBox="0 0 526.01 597.85"><path d="M0,0h525.98c0,2.53,0,4.47,0,6.42,0,43.33-.1,86.67.03,130,.16,51.06-5.64,101.35-19.54,150.54-12.2,43.18-28.86,84.61-52.54,122.82-13.07,21.09-26.76,41.96-41.94,61.56-22.35,28.87-48.14,54.64-76.66,77.62-21.55,17.36-44.08,33.23-67.89,47.32-2.66,1.57-4.72,2.36-8.06.43-27.78-16.12-53.54-34.98-78.1-55.64-33.08-27.82-61.44-59.91-86.34-95.05-17.43-24.6-32.62-50.63-45.35-78.01-19.71-42.39-33.68-86.6-41.7-132.67C2.91,206.75.41,177.95.36,148.94.26,101.28.12,53.62,0,5.95c0-1.79,0-3.58,0-5.95Z" style="fill:#1c2127;"/></svg>