<svg id="live-preview" width="300" height="300" xmlns="http://www.w3.org/2000/svg" class="border rounded" viewBox="-0.0000133514404296875 0 512.8703002929688 596.8800659179688"><defs><mask id="shield-mask"><rect width="100%" height="100%" fill="black"/><path d="M255.06,596.88c-3.44-6.45-7.67-13.4-15.63-17.44-10.71-5.44-22.08-8.59-33.82-9.71-22.86-2.18-45.79-3.61-68.69-5.28-24.92-1.82-49.79-4-73.82-11.45-17.23-5.34-32.91-13.45-44.82-27.46C4.67,509.53-.01,490.46,0,469.94.1,315.27.23,160.6.35,5.93c0-1.82,0-3.63,0-5.93h512.2c0,1.81,0,3.75,0,5.69.04,119.34.06,238.68.12,358.02.02,35.5.11,71,.2,106.5.04,17.71-3.53,34.55-13.68,49.26-11.71,16.97-28.57,26.9-47.95,33.08-29.98,9.56-61.08,10.7-92.08,13.03-22.53,1.69-45.02,4.17-67.42,7.15-6.71.89-13.77,3.57-19.34,7.37-6.47,4.41-11.49,10.96-17.34,16.78Z" fill="white"/></mask></defs>
        <defs>
            
            <pattern id="pattern1" patternUnits="userSpaceOnUse" width="60" height="60" x="0" y="0"><rect width="30" height="60" fill="#ff3939"/><rect x="30" width="30" height="60" fill="#7dff8e"/></pattern>
            
            <pattern id="pattern2" patternUnits="userSpaceOnUse" width="60" height="60" x="0" y="0"><rect width="60" height="60" fill="#7dff8e"/><line x1="0" y1="0" x2="60" y2="60" stroke="#ff3939" stroke-width="10"/><line x1="0" y1="60" x2="60" y2="0" stroke="#ff3939" stroke-width="10"/></pattern>
            
            <pattern id="pattern3" patternUnits="userSpaceOnUse" width="60" height="60" x="0" y="0"><rect width="60" height="60" fill="#7dff8e"/><line x1="0" y1="0" x2="60" y2="60" stroke="#ff3939" stroke-width="10"/><line x1="-30" y1="0" x2="30" y2="60" stroke="#ff3939" stroke-width="10"/><line x1="30" y1="0" x2="90" y2="60" stroke="#ff3939" stroke-width="10"/></pattern>
            
            <pattern id="pattern4" patternUnits="userSpaceOnUse" width="60" height="60" x="0" y="0"><rect width="60" height="60" fill="#ff3939"/><rect y="20" width="60" height="20" fill="#7dff8e"/></pattern>
            
            <pattern id="pattern5" patternUnits="userSpaceOnUse" width="60" height="60" x="0" y="0" patternTransform="translate(51, 162) scale(3.3333333333333335)"><rect width="60" height="60" fill="#7dff8e"/><circle cx="30" cy="30" r="20" fill="#ff3939"/></pattern>
            
            <pattern id="pattern6" patternUnits="userSpaceOnUse" width="60" height="60" x="0" y="0"><rect width="60" height="60" fill="#7dff8e"/><rect x="0" y="0" width="30" height="30" fill="#ff3939"/><rect x="30" y="30" width="30" height="30" fill="#ff3939"/></pattern>
            
            <clipPath id="shield-clip">
                <path id="clip-path-shape" d="M255.06,596.88c-3.44-6.45-7.67-13.4-15.63-17.44-10.71-5.44-22.08-8.59-33.82-9.71-22.86-2.18-45.79-3.61-68.69-5.28-24.92-1.82-49.79-4-73.82-11.45-17.23-5.34-32.91-13.45-44.82-27.46C4.67,509.53-.01,490.46,0,469.94.1,315.27.23,160.6.35,5.93c0-1.82,0-3.63,0-5.93h512.2c0,1.81,0,3.75,0,5.69.04,119.34.06,238.68.12,358.02.02,35.5.11,71,.2,106.5.04,17.71-3.53,34.55-13.68,49.26-11.71,16.97-28.57,26.9-47.95,33.08-29.98,9.56-61.08,10.7-92.08,13.03-22.53,1.69-45.02,4.17-67.42,7.15-6.71.89-13.77,3.57-19.34,7.37-6.47,4.41-11.49,10.96-17.34,16.78Z"/>
            </clipPath>
        </defs>
        
    <g mask="url(#shield-mask)"><g id="shield-group">
            <g clip-path="url(#shield-clip)">
                <rect id="pattern-fill" width="100%" height="100%" fill="url(#pattern5)"/>
                <image id="shield-icon" width="60" height="60" x="120" y="120" visibility="hidden" href="/static/user_created_icons/skull_team/animal-skull-svgrepo-com.svg"/>
            </g>
            <path id="shield-outline" d="M255.06,596.88c-3.44-6.45-7.67-13.4-15.63-17.44-10.71-5.44-22.08-8.59-33.82-9.71-22.86-2.18-45.79-3.61-68.69-5.28-24.92-1.82-49.79-4-73.82-11.45-17.23-5.34-32.91-13.45-44.82-27.46C4.67,509.53-.01,490.46,0,469.94.1,315.27.23,160.6.35,5.93c0-1.82,0-3.63,0-5.93h512.2c0,1.81,0,3.75,0,5.69.04,119.34.06,238.68.12,358.02.02,35.5.11,71,.2,106.5.04,17.71-3.53,34.55-13.68,49.26-11.71,16.97-28.57,26.9-47.95,33.08-29.98,9.56-61.08,10.7-92.08,13.03-22.53,1.69-45.02,4.17-67.42,7.15-6.71.89-13.77,3.57-19.34,7.37-6.47,4.41-11.49,10.96-17.34,16.78Z" fill="none" stroke="#333" stroke-width="1.5"/>
        </g><svg xmlns="http://www.w3.org/2000/svg" width="600" height="600" viewBox="0 0 512 512" id="inline-shield-icon" x="-39.064863204957874" y="-6.059967041015625" preserveAspectRatio="xMidYMid meet"><path fill="#000000" d="M187.406 22.22l-41.562 41.843 62.875 29.843-8 16.875-68.845-32.655L59.97 150.53l33.31 96.97 56.876-7.156 10.53-42.47 18.126 4.47-45.843 185.25 55.31-49.656 10-9 4.94 12.5 14.81 37.53 31.25-41.624 8.126-10.844 7.25 11.47 30.406 48.217 22.657-46.75 5.092-10.5 9.125 7.25 62.532 49.782-62.814-182.22 17.656-6.094 12.782 37.063 60.562-.94 26.47-101.874-72.72-62.344-70.125 38.844-9.06-16.375 64.03-35.468-29.75-25.53-144.094-8.813zm190.688 85.5l13.28 67.218-107.28-16.25 94-50.97zm-246.188.936L229.97 160l-116.25 13.47 18.186-64.814zm123.188 122.5l55.844 64.75-36.25 12.875-17.407-42.655-15.374 43.344-35.344-13.564 48.532-64.75zm74.344 126.938L304.53 409.47l-7.342 15.155-8.97-14.25-32.124-50.97-33.156 44.19-10.063 13.342-6.125-15.53-15.97-40.594-30.436 27.312 25.53 66.406 61.407 35.22 98.814-39.563 16.937-65.343-33.592-26.75z"/></svg></g></svg>