<svg id="live-preview" width="300" height="300" xmlns="http://www.w3.org/2000/svg" class="border rounded" viewBox="-0.0000133514404296875 0 512.8703002929688 596.8800659179688"><defs><mask id="shield-mask"><rect width="100%" height="100%" fill="black"/><path d="M255.06,596.88c-3.44-6.45-7.67-13.4-15.63-17.44-10.71-5.44-22.08-8.59-33.82-9.71-22.86-2.18-45.79-3.61-68.69-5.28-24.92-1.82-49.79-4-73.82-11.45-17.23-5.34-32.91-13.45-44.82-27.46C4.67,509.53-.01,490.46,0,469.94.1,315.27.23,160.6.35,5.93c0-1.82,0-3.63,0-5.93h512.2c0,1.81,0,3.75,0,5.69.04,119.34.06,238.68.12,358.02.02,35.5.11,71,.2,106.5.04,17.71-3.53,34.55-13.68,49.26-11.71,16.97-28.57,26.9-47.95,33.08-29.98,9.56-61.08,10.7-92.08,13.03-22.53,1.69-45.02,4.17-67.42,7.15-6.71.89-13.77,3.57-19.34,7.37-6.47,4.41-11.49,10.96-17.34,16.78Z" fill="white"/></mask></defs>
        <defs>
            
            <pattern id="pattern1" patternUnits="userSpaceOnUse" width="60" height="60" x="0" y="0"><rect width="30" height="60" fill="#d32f2f"/><rect x="30" width="30" height="60" fill="#fdd835"/></pattern>
            
            <pattern id="pattern2" patternUnits="userSpaceOnUse" width="60" height="60" x="0" y="0"><rect width="60" height="60" fill="#fdd835"/><line x1="0" y1="0" x2="60" y2="60" stroke="#d32f2f" stroke-width="10"/><line x1="0" y1="60" x2="60" y2="0" stroke="#d32f2f" stroke-width="10"/></pattern>
            
            <pattern id="pattern3" patternUnits="userSpaceOnUse" width="60" height="60" x="0" y="0"><rect width="60" height="60" fill="#fdd835"/><line x1="0" y1="0" x2="60" y2="60" stroke="#d32f2f" stroke-width="10"/><line x1="-30" y1="0" x2="30" y2="60" stroke="#d32f2f" stroke-width="10"/><line x1="30" y1="0" x2="90" y2="60" stroke="#d32f2f" stroke-width="10"/></pattern>
            
            <pattern id="pattern4" patternUnits="userSpaceOnUse" width="60" height="60" x="0" y="0"><rect width="60" height="60" fill="#d32f2f"/><rect y="20" width="60" height="20" fill="#fdd835"/></pattern>
            
            <pattern id="pattern5" patternUnits="userSpaceOnUse" width="60" height="60" x="0" y="0"><rect width="60" height="60" fill="#fdd835"/><circle cx="30" cy="30" r="20" fill="#d32f2f"/></pattern>
            
            <pattern id="pattern6" patternUnits="userSpaceOnUse" width="60" height="60" x="0" y="0"><rect width="60" height="60" fill="#fdd835"/><rect x="0" y="0" width="30" height="30" fill="#d32f2f"/><rect x="30" y="30" width="30" height="30" fill="#d32f2f"/></pattern>
            
            <clipPath id="shield-clip">
                <path id="clip-path-shape" d="M255.06,596.88c-3.44-6.45-7.67-13.4-15.63-17.44-10.71-5.44-22.08-8.59-33.82-9.71-22.86-2.18-45.79-3.61-68.69-5.28-24.92-1.82-49.79-4-73.82-11.45-17.23-5.34-32.91-13.45-44.82-27.46C4.67,509.53-.01,490.46,0,469.94.1,315.27.23,160.6.35,5.93c0-1.82,0-3.63,0-5.93h512.2c0,1.81,0,3.75,0,5.69.04,119.34.06,238.68.12,358.02.02,35.5.11,71,.2,106.5.04,17.71-3.53,34.55-13.68,49.26-11.71,16.97-28.57,26.9-47.95,33.08-29.98,9.56-61.08,10.7-92.08,13.03-22.53,1.69-45.02,4.17-67.42,7.15-6.71.89-13.77,3.57-19.34,7.37-6.47,4.41-11.49,10.96-17.34,16.78Z"/>
            </clipPath>
        </defs>
        
    <g mask="url(#shield-mask)"><g id="shield-group">
            <g clip-path="url(#shield-clip)">
                <rect id="pattern-fill" width="100%" height="100%" fill="url(#pattern5)"/>
                <image id="shield-icon" href="/static/team_creation_assets/icons/anatomy-svgrepo-com.svg" width="400" height="400" x="56.435136795042126" y="98.44003295898438" visibility="visible" style="filter: none;"/>
            </g>
            <path id="shield-outline" d="M255.06,596.88c-3.44-6.45-7.67-13.4-15.63-17.44-10.71-5.44-22.08-8.59-33.82-9.71-22.86-2.18-45.79-3.61-68.69-5.28-24.92-1.82-49.79-4-73.82-11.45-17.23-5.34-32.91-13.45-44.82-27.46C4.67,509.53-.01,490.46,0,469.94.1,315.27.23,160.6.35,5.93c0-1.82,0-3.63,0-5.93h512.2c0,1.81,0,3.75,0,5.69.04,119.34.06,238.68.12,358.02.02,35.5.11,71,.2,106.5.04,17.71-3.53,34.55-13.68,49.26-11.71,16.97-28.57,26.9-47.95,33.08-29.98,9.56-61.08,10.7-92.08,13.03-22.53,1.69-45.02,4.17-67.42,7.15-6.71.89-13.77,3.57-19.34,7.37-6.47,4.41-11.49,10.96-17.34,16.78Z" fill="none" stroke="#333" stroke-width="1.5"/>
        </g></g></svg>