<svg id="live-preview" width="300" height="300" xmlns="http://www.w3.org/2000/svg" style="display: block; margin: 0 auto;" viewBox="0 0 526.0132446289062 597.84619140625"><defs><mask id="shield-mask"><rect width="100%" height="100%" fill="black"/><path d="M0,0h525.98c0,2.53,0,4.47,0,6.42,0,43.33-.1,86.67.03,130,.16,51.06-5.64,101.35-19.54,150.54-12.2,43.18-28.86,84.61-52.54,122.82-13.07,21.09-26.76,41.96-41.94,61.56-22.35,28.87-48.14,54.64-76.66,77.62-21.55,17.36-44.08,33.23-67.89,47.32-2.66,1.57-4.72,2.36-8.06.43-27.78-16.12-53.54-34.98-78.1-55.64-33.08-27.82-61.44-59.91-86.34-95.05-17.43-24.6-32.62-50.63-45.35-78.01-19.71-42.39-33.68-86.6-41.7-132.67C2.91,206.75.41,177.95.36,148.94.26,101.28.12,53.62,0,5.95c0-1.79,0-3.58,0-5.95Z" fill="white"/></mask></defs>
        <defs>
          
          <pattern id="pattern1" patternUnits="userSpaceOnUse" width="60" height="60" x="0" y="0">
                    <rect width="30" height="60" fill="#000000"/>
                    <rect x="30" width="30" height="60" fill="#ff0059"/>
                </pattern>
          
          <pattern id="pattern2" patternUnits="userSpaceOnUse" width="60" height="60" x="0" y="0" patternTransform="translate(85.5, 100.5) scale(0.16666666666666666)">
                    <rect width="60" height="60" fill="#ff0059"/>
                    <line x1="0" y1="0" x2="60" y2="60" stroke="#000000" stroke-width="10"/>
                    <line x1="0" y1="60" x2="60" y2="0" stroke="#000000" stroke-width="10"/>
                </pattern>
          
          <pattern id="pattern3" patternUnits="userSpaceOnUse" width="60" height="60" x="0" y="0">
                    <rect width="60" height="60" fill="#ff0059"/>
                    <line x1="0" y1="0" x2="60" y2="60" stroke="#000000" stroke-width="10"/>
                    <line x1="-30" y1="0" x2="30" y2="60" stroke="#000000" stroke-width="10"/>
                    <line x1="30" y1="0" x2="90" y2="60" stroke="#000000" stroke-width="10"/>
                </pattern>
          
          <pattern id="pattern4" patternUnits="userSpaceOnUse" width="60" height="60" x="0" y="0">
                    <rect width="60" height="60" fill="#000000"/>
                    <rect y="20" width="60" height="20" fill="#ff0059"/>
                </pattern>
          
          <pattern id="pattern5" patternUnits="userSpaceOnUse" width="60" height="60" x="0" y="0">
                    <rect width="60" height="60" fill="#ff0059"/>
                    <circle cx="30" cy="30" r="20" fill="#000000"/>
                </pattern>
          
          <pattern id="pattern6" patternUnits="userSpaceOnUse" width="60" height="60" x="0" y="0">
                    <rect width="60" height="60" fill="#ff0059"/>
                    <rect x="0" y="0" width="30" height="30" fill="#000000"/>
                    <rect x="30" y="30" width="30" height="30" fill="#000000"/>
                </pattern>
          
          <clipPath id="shield-clip">
            <path id="clip-path-shape" d="M0,0h525.98c0,2.53,0,4.47,0,6.42,0,43.33-.1,86.67.03,130,.16,51.06-5.64,101.35-19.54,150.54-12.2,43.18-28.86,84.61-52.54,122.82-13.07,21.09-26.76,41.96-41.94,61.56-22.35,28.87-48.14,54.64-76.66,77.62-21.55,17.36-44.08,33.23-67.89,47.32-2.66,1.57-4.72,2.36-8.06.43-27.78-16.12-53.54-34.98-78.1-55.64-33.08-27.82-61.44-59.91-86.34-95.05-17.43-24.6-32.62-50.63-45.35-78.01-19.71-42.39-33.68-86.6-41.7-132.67C2.91,206.75.41,177.95.36,148.94.26,101.28.12,53.62,0,5.95c0-1.79,0-3.58,0-5.95Z"/>
          </clipPath>
        </defs>
        
      <g mask="url(#shield-mask)"><g id="shield-group">
          <g clip-path="url(#shield-clip)">
            <rect id="pattern-fill" width="100%" height="100%" fill="url(#pattern2)"/>
            <image id="shield-icon" width="400" height="400" x="63.006622314453125" y="98.923095703125" visibility="hidden" href="/static/user_created_icons/uiuhiuhiuh/architect-mask-svgrepo-com.svg"/>
          </g>
          <path id="shield-outline" d="M0,0h525.98c0,2.53,0,4.47,0,6.42,0,43.33-.1,86.67.03,130,.16,51.06-5.64,101.35-19.54,150.54-12.2,43.18-28.86,84.61-52.54,122.82-13.07,21.09-26.76,41.96-41.94,61.56-22.35,28.87-48.14,54.64-76.66,77.62-21.55,17.36-44.08,33.23-67.89,47.32-2.66,1.57-4.72,2.36-8.06.43-27.78-16.12-53.54-34.98-78.1-55.64-33.08-27.82-61.44-59.91-86.34-95.05-17.43-24.6-32.62-50.63-45.35-78.01-19.71-42.39-33.68-86.6-41.7-132.67C2.91,206.75.41,177.95.36,148.94.26,101.28.12,53.62,0,5.95c0-1.79,0-3.58,0-5.95Z" fill="none" stroke="#333" stroke-width="1.5"/>
        </g><svg xmlns="http://www.w3.org/2000/svg" width="600" height="600" viewBox="0 0 512 512" id="inline-shield-icon" x="-35.493377685546875" y="18.423095703125" preserveAspectRatio="xMidYMid meet"><path fill="#000000" d="M255.656 18.906c-76 .73-152 78.23-152 230.313 0 116.987 152 244.155 152 244.155s152.007-127.153 152-244.156c.002-155.008-76-231.045-152-230.314zm-82.812 125.47l13.22 77.843c20.878 3.65 36.813 22.085 36.624 43.936-.143 16.366-9.304 30.634-22.688 38.156l12.344 72.813c-17.1-18.5-30.538-41.915-39.813-67.563-21.673-2.953-38.443-21.77-38.25-44.187.146-16.61 9.572-31.07 23.282-38.5-.354-29.225 4.552-57.82 15.282-82.5zm165.594 0c10.73 24.678 15.635 53.274 15.28 82.5 13.71 7.428 23.138 21.89 23.282 38.5.195 22.415-16.575 41.233-38.25 44.187-9.275 25.647-22.68 49.063-39.78 67.562l12.342-72.78c-13.404-7.518-22.576-21.807-22.718-38.19-.19-21.86 15.762-40.297 36.656-43.936l13.188-77.845zm-159.72 95.874c-14.203-.123-25.626 11.08-25.75 25.28-.122 14.174 11.06 25.578 25.22 25.75h.093c14.205.125 25.597-11.107 25.72-25.31.123-14.206-11.077-25.597-25.28-25.72zm153.845 0c-14.205.123-25.405 11.514-25.282 25.72.125 14.203 11.547 25.435 25.75 25.31 14.205-.122 25.406-11.544 25.283-25.75-.124-14.2-11.547-25.403-25.75-25.28z"/></svg></g></svg>