<svg id="live-preview" width="300" height="300" xmlns="http://www.w3.org/2000/svg" class="border rounded" viewBox="-0.0000133514404296875 0 512.8703002929688 596.8800659179688"><defs><mask id="shield-mask"><rect width="100%" height="100%" fill="black"/><path d="M255.06,596.88c-3.44-6.45-7.67-13.4-15.63-17.44-10.71-5.44-22.08-8.59-33.82-9.71-22.86-2.18-45.79-3.61-68.69-5.28-24.92-1.82-49.79-4-73.82-11.45-17.23-5.34-32.91-13.45-44.82-27.46C4.67,509.53-.01,490.46,0,469.94.1,315.27.23,160.6.35,5.93c0-1.82,0-3.63,0-5.93h512.2c0,1.81,0,3.75,0,5.69.04,119.34.06,238.68.12,358.02.02,35.5.11,71,.2,106.5.04,17.71-3.53,34.55-13.68,49.26-11.71,16.97-28.57,26.9-47.95,33.08-29.98,9.56-61.08,10.7-92.08,13.03-22.53,1.69-45.02,4.17-67.42,7.15-6.71.89-13.77,3.57-19.34,7.37-6.47,4.41-11.49,10.96-17.34,16.78Z" fill="white"/></mask></defs>
        <defs>
            
            <pattern id="pattern1" patternUnits="userSpaceOnUse" width="60" height="60" x="0" y="0" patternTransform="translate(90, 10.5) scale(3.075)">
                    <rect width="30" height="60" fill="#3e1cff"/>
                    <rect x="30" width="30" height="60" fill="#ff407c"/>
                </pattern>
            
            <pattern id="pattern2" patternUnits="userSpaceOnUse" width="60" height="60" x="0" y="0">
                    <rect width="60" height="60" fill="#ff407c"/>
                    <line x1="0" y1="0" x2="60" y2="60" stroke="#3e1cff" stroke-width="10"/>
                    <line x1="0" y1="60" x2="60" y2="0" stroke="#3e1cff" stroke-width="10"/>
                </pattern>
            
            <pattern id="pattern3" patternUnits="userSpaceOnUse" width="60" height="60" x="0" y="0">
                    <rect width="60" height="60" fill="#ff407c"/>
                    <line x1="0" y1="0" x2="60" y2="60" stroke="#3e1cff" stroke-width="10"/>
                    <line x1="-30" y1="0" x2="30" y2="60" stroke="#3e1cff" stroke-width="10"/>
                    <line x1="30" y1="0" x2="90" y2="60" stroke="#3e1cff" stroke-width="10"/>
                </pattern>
            
            <pattern id="pattern4" patternUnits="userSpaceOnUse" width="60" height="60" x="0" y="0">
                    <rect width="60" height="60" fill="#3e1cff"/>
                    <rect y="20" width="60" height="20" fill="#ff407c"/>
                </pattern>
            
            <pattern id="pattern5" patternUnits="userSpaceOnUse" width="60" height="60" x="0" y="0">
                    <rect width="60" height="60" fill="#ff407c"/>
                    <circle cx="30" cy="30" r="20" fill="#3e1cff"/>
                </pattern>
            
            <pattern id="pattern6" patternUnits="userSpaceOnUse" width="60" height="60" x="0" y="0">
                    <rect width="60" height="60" fill="#ff407c"/>
                    <rect x="0" y="0" width="30" height="30" fill="#3e1cff"/>
                    <rect x="30" y="30" width="30" height="30" fill="#3e1cff"/>
                </pattern>
            
            <clipPath id="shield-clip">
                <path id="clip-path-shape" d="M255.06,596.88c-3.44-6.45-7.67-13.4-15.63-17.44-10.71-5.44-22.08-8.59-33.82-9.71-22.86-2.18-45.79-3.61-68.69-5.28-24.92-1.82-49.79-4-73.82-11.45-17.23-5.34-32.91-13.45-44.82-27.46C4.67,509.53-.01,490.46,0,469.94.1,315.27.23,160.6.35,5.93c0-1.82,0-3.63,0-5.93h512.2c0,1.81,0,3.75,0,5.69.04,119.34.06,238.68.12,358.02.02,35.5.11,71,.2,106.5.04,17.71-3.53,34.55-13.68,49.26-11.71,16.97-28.57,26.9-47.95,33.08-29.98,9.56-61.08,10.7-92.08,13.03-22.53,1.69-45.02,4.17-67.42,7.15-6.71.89-13.77,3.57-19.34,7.37-6.47,4.41-11.49,10.96-17.34,16.78Z"/>
            </clipPath>
        </defs>
        
    <g mask="url(#shield-mask)"><g id="shield-group">
            <g clip-path="url(#shield-clip)">
                <rect id="pattern-fill" width="100%" height="100%" fill="url(#pattern1)"/>
                <image id="shield-icon" width="60" height="60" x="120" y="120" visibility="hidden" href="/static/user_created_icons/arrow_team/arrow-cluster-svgrepo-com.svg"/>
            </g>
            <path id="shield-outline" d="M255.06,596.88c-3.44-6.45-7.67-13.4-15.63-17.44-10.71-5.44-22.08-8.59-33.82-9.71-22.86-2.18-45.79-3.61-68.69-5.28-24.92-1.82-49.79-4-73.82-11.45-17.23-5.34-32.91-13.45-44.82-27.46C4.67,509.53-.01,490.46,0,469.94.1,315.27.23,160.6.35,5.93c0-1.82,0-3.63,0-5.93h512.2c0,1.81,0,3.75,0,5.69.04,119.34.06,238.68.12,358.02.02,35.5.11,71,.2,106.5.04,17.71-3.53,34.55-13.68,49.26-11.71,16.97-28.57,26.9-47.95,33.08-29.98,9.56-61.08,10.7-92.08,13.03-22.53,1.69-45.02,4.17-67.42,7.15-6.71.89-13.77,3.57-19.34,7.37-6.47,4.41-11.49,10.96-17.34,16.78Z" fill="none" stroke="#333" stroke-width="1.5"/>
        </g><svg xmlns="http://www.w3.org/2000/svg" width="475" height="475" viewBox="0 0 512 512" id="inline-shield-icon" x="20.435136795042126" y="38.440032958984375" preserveAspectRatio="xMidYMid meet"><path fill="#000000" d="M257.313 15.688l-50.375 87.53 28.156-8.53 22.28-38.72 22.407 38.782 28.126 8.47-50.594-87.532zm-138.938 77.75l18.5 99.28 14.156-22.093L141.595 120l48.97 17.313 23.124-10.157-95.313-33.72zm278.72 0l-95.314 33.718 23.876 10.5L375.562 120l-9.812 52.688 12.844 20.03 18.5-99.28zm-139.72 2.03l-9.344 2.844v104.47l9.69 11.343 9-10.5V98.28l-9.345-2.81zm81.22 52.032l-54.345 63.688.344.28-14.563 17 12.033 14.063 71.093-83.343-4.75-7.375-9.812-4.312zm-161.25.53l-8.595 3.782-5.47 8.532 255.5 299.469L433 447.688l-8.094-9.47 22.688-10.03 11.47-5.063-8.158-9.53-44.125-51.783-2.31-2.718-3.564-.47-49.562-6.655-174-203.94zm56.06 123.22l-62.218 72.688-.125-.094-6.625 7.75-49.718 6.687-3.564.47-2.312 2.72-44.28 51.936-8.158 9.563 11.5 5.06 22.75 10.064-8.187 9.594 14.218 12.156L245.594 285.28l-12.188-14.03zm24.376 28.125l-9.75 11.28v178.75h18.69v-15.092l24.874 7.437 12.03 3.594v-87l-2.374-2.656-34.53-38.47v-47.5l-8.94-10.343zm-111.5 73.5l-42.936 50.375L86.906 416l33.844-39.688 25.53-3.437zm223.22.375l25.406 3.438 33.656 39.468-16.312 7.22-42.75-50.126zm-140.03 4.375l-16.064 18.094-2.344 2.655v87.031l12.063-3.656 6.344-1.906v-102.22zm37.25 7.563l18.217 20.312v54.75l-18.218-5.438v-69.625zm-87.75 5.406l-64.564 74.687 3.5 5.44 6.813 10.592 8.155-9.593 44.28-51.94 2.314-2.686-.064-3.563-.437-22.936zm157.905.156l-.438 22.97-.093 3.53 2.312 2.72 44.125 51.75 8.19 9.592 6.78-10.625 3.53-5.5-64.405-74.437z"/></svg></g></svg>