<svg id="live-preview" width="300" height="300" xmlns="http://www.w3.org/2000/svg" class="border rounded" style="background-color: white;" viewBox="0 0 490.0005187988281 598.17822265625">
        <defs>
            
            <pattern id="pattern1" patternUnits="userSpaceOnUse" width="60" height="60" x="0" y="0"><rect width="30" height="60" fill="#d37c88"/><rect x="30" width="30" height="60" fill="#fda572"/></pattern>
            
            <pattern id="pattern2" patternUnits="userSpaceOnUse" width="60" height="60" x="0" y="0"><rect width="60" height="60" fill="#fda572"/><line x1="0" y1="0" x2="60" y2="60" stroke="#d37c88" stroke-width="10"/><line x1="0" y1="60" x2="60" y2="0" stroke="#d37c88" stroke-width="10"/></pattern>
            
            <pattern id="pattern3" patternUnits="userSpaceOnUse" width="60" height="60" x="0" y="0"><rect width="60" height="60" fill="#fda572"/><line x1="0" y1="0" x2="60" y2="60" stroke="#d37c88" stroke-width="10"/><line x1="-30" y1="0" x2="30" y2="60" stroke="#d37c88" stroke-width="10"/><line x1="30" y1="0" x2="90" y2="60" stroke="#d37c88" stroke-width="10"/></pattern>
            
            <pattern id="pattern4" patternUnits="userSpaceOnUse" width="60" height="60" x="0" y="0"><rect width="60" height="60" fill="#d37c88"/><rect y="20" width="60" height="20" fill="#fda572"/></pattern>
            
            <pattern id="pattern5" patternUnits="userSpaceOnUse" width="60" height="60" x="0" y="0"><rect width="60" height="60" fill="#fda572"/><circle cx="30" cy="30" r="20" fill="#d37c88"/></pattern>
            
            <pattern id="pattern6" patternUnits="userSpaceOnUse" width="60" height="60" x="0" y="0"><rect width="60" height="60" fill="#fda572"/><rect x="0" y="0" width="30" height="30" fill="#d37c88"/><rect x="30" y="30" width="30" height="30" fill="#d37c88"/></pattern>
            
            <clipPath id="shield-clip">
                <path id="clip-path-shape" d="M489.61,0c.08,1.5.21,2.96.21,4.42.08,58.17.22,116.34.17,174.5-.03,37.49-.34,74.98-.56,112.48-.18,30.66-.13,61.32-.68,91.98-.47,26.19-8.38,50.41-21.65,72.85-17.25,29.16-41.45,51.69-68.78,71.16-26.27,18.71-54.35,34.2-84.17,46.34-20.41,8.31-41.29,15.45-61.95,23.16-4.89,1.82-9.62,1.59-14.58.07-36.32-11.17-71.27-25.59-104.7-43.71-19.72-10.69-38.43-22.91-56.04-36.76-25.55-20.09-46.96-43.8-61.25-73.26-10.46-21.58-14.93-44.56-14.95-68.57C.54,251.5.24,128.33,0,5.17c0-1.65,0-3.3,0-5.17h489.61Z"/>
            </clipPath>
        </defs>
        <g id="shield-group">
            <g clip-path="url(#shield-clip)">
                <rect id="pattern-fill" width="100%" height="100%" fill="url(#pattern5)"/>
                <image id="shield-icon" href="/static/team_creation_assets/icons/alien-stare-svgrepo-com.svg" width="400" height="400" x="45.00025939941406" y="99.089111328125" visibility="visible" style="filter: invert(1);"/>
            </g>
            <path id="shield-outline" d="M489.61,0c.08,1.5.21,2.96.21,4.42.08,58.17.22,116.34.17,174.5-.03,37.49-.34,74.98-.56,112.48-.18,30.66-.13,61.32-.68,91.98-.47,26.19-8.38,50.41-21.65,72.85-17.25,29.16-41.45,51.69-68.78,71.16-26.27,18.71-54.35,34.2-84.17,46.34-20.41,8.31-41.29,15.45-61.95,23.16-4.89,1.82-9.62,1.59-14.58.07-36.32-11.17-71.27-25.59-104.7-43.71-19.72-10.69-38.43-22.91-56.04-36.76-25.55-20.09-46.96-43.8-61.25-73.26-10.46-21.58-14.93-44.56-14.95-68.57C.54,251.5.24,128.33,0,5.17c0-1.65,0-3.3,0-5.17h489.61Z" fill="none" stroke="#333" stroke-width="1.5"/>
        </g>
    </svg>