<svg id="live-preview" width="300" height="300" xmlns="http://www.w3.org/2000/svg" class="border rounded" viewBox="0 0 598.2099609375 598.4200439453125"><defs><mask id="shield-mask"><rect width="100%" height="100%" fill="black"/><path d="M0,296.88C99.09,198.49,199.21,99.07,298.99,0c99.6,98.99,199.75,198.52,299.22,297.38-100.07,100.76-199.33,200.72-298.96,301.04C199.38,497.79,100.13,397.78,0,296.88Z" fill="white"/></mask></defs>
        <defs>
            
            <pattern id="pattern1" patternUnits="userSpaceOnUse" width="60" height="60" x="0" y="0"><rect width="30" height="60" fill="#d40020"/><rect x="30" width="30" height="60" fill="#fd4c17"/></pattern>
            
            <pattern id="pattern2" patternUnits="userSpaceOnUse" width="60" height="60" x="0" y="0"><rect width="60" height="60" fill="#fd4c17"/><line x1="0" y1="0" x2="60" y2="60" stroke="#d40020" stroke-width="10"/><line x1="0" y1="60" x2="60" y2="0" stroke="#d40020" stroke-width="10"/></pattern>
            
            <pattern id="pattern3" patternUnits="userSpaceOnUse" width="60" height="60" x="0" y="0"><rect width="60" height="60" fill="#fd4c17"/><line x1="0" y1="0" x2="60" y2="60" stroke="#d40020" stroke-width="10"/><line x1="-30" y1="0" x2="30" y2="60" stroke="#d40020" stroke-width="10"/><line x1="30" y1="0" x2="90" y2="60" stroke="#d40020" stroke-width="10"/></pattern>
            
            <pattern id="pattern4" patternUnits="userSpaceOnUse" width="60" height="60" x="0" y="0"><rect width="60" height="60" fill="#d40020"/><rect y="20" width="60" height="20" fill="#fd4c17"/></pattern>
            
            <pattern id="pattern5" patternUnits="userSpaceOnUse" width="60" height="60" x="0" y="0"><rect width="60" height="60" fill="#fd4c17"/><circle cx="30" cy="30" r="20" fill="#d40020"/></pattern>
            
            <pattern id="pattern6" patternUnits="userSpaceOnUse" width="60" height="60" x="0" y="0"><rect width="60" height="60" fill="#fd4c17"/><rect x="0" y="0" width="30" height="30" fill="#d40020"/><rect x="30" y="30" width="30" height="30" fill="#d40020"/></pattern>
            
            <clipPath id="shield-clip">
                <path id="clip-path-shape" d="M0,296.88C99.09,198.49,199.21,99.07,298.99,0c99.6,98.99,199.75,198.52,299.22,297.38-100.07,100.76-199.33,200.72-298.96,301.04C199.38,497.79,100.13,397.78,0,296.88Z"/>
            </clipPath>
        </defs>
        
    <g mask="url(#shield-mask)"><g id="shield-group">
            <g clip-path="url(#shield-clip)">
                <rect id="pattern-fill" width="100%" height="100%" fill="url(#pattern2)"/>
                <image id="shield-icon" href="/static/user_created_icons/oly/anchor-svgrepo-com.svg" width="265" height="265" x="166.60498046875" y="166.71002197265625" visibility="visible" style="filter: invert(1);"/>
            </g>
            <path id="shield-outline" d="M0,296.88C99.09,198.49,199.21,99.07,298.99,0c99.6,98.99,199.75,198.52,299.22,297.38-100.07,100.76-199.33,200.72-298.96,301.04C199.38,497.79,100.13,397.78,0,296.88Z" fill="none" stroke="#333" stroke-width="1.5"/>
        </g></g></svg>